%TF.GenerationSoftware,KiCad,Pcbnew,9.0.0*%
%TF.CreationDate,2025-07-05T08:14:35+06:00*%
%TF.ProjectId,uart,75617274-2e6b-4696-9361-645f70636258,rev?*%
%TF.SameCoordinates,Original*%
%TF.FileFunction,Copper,L1,Top*%
%TF.FilePolarity,Positive*%
%FSLAX46Y46*%
G04 Gerber Fmt 4.6, Leading zero omitted, Abs format (unit mm)*
G04 Created by KiCad (PCBNEW 9.0.0) date 2025-07-05 08:14:35*
%MOMM*%
%LPD*%
G01*
G04 APERTURE LIST*
G04 Aperture macros list*
%AMRoundRect*
0 Rectangle with rounded corners*
0 $1 Rounding radius*
0 $2 $3 $4 $5 $6 $7 $8 $9 X,Y pos of 4 corners*
0 Add a 4 corners polygon primitive as box body*
4,1,4,$2,$3,$4,$5,$6,$7,$8,$9,$2,$3,0*
0 Add four circle primitives for the rounded corners*
1,1,$1+$1,$2,$3*
1,1,$1+$1,$4,$5*
1,1,$1+$1,$6,$7*
1,1,$1+$1,$8,$9*
0 Add four rect primitives between the rounded corners*
20,1,$1+$1,$2,$3,$4,$5,0*
20,1,$1+$1,$4,$5,$6,$7,0*
20,1,$1+$1,$6,$7,$8,$9,0*
20,1,$1+$1,$8,$9,$2,$3,0*%
G04 Aperture macros list end*
%TA.AperFunction,ComponentPad*%
%ADD10C,1.600000*%
%TD*%
%TA.AperFunction,ComponentPad*%
%ADD11C,1.400000*%
%TD*%
%TA.AperFunction,ComponentPad*%
%ADD12O,1.400000X1.400000*%
%TD*%
%TA.AperFunction,ComponentPad*%
%ADD13R,1.800000X1.800000*%
%TD*%
%TA.AperFunction,ComponentPad*%
%ADD14C,1.800000*%
%TD*%
%TA.AperFunction,SMDPad,CuDef*%
%ADD15RoundRect,0.075000X-0.662500X-0.075000X0.662500X-0.075000X0.662500X0.075000X-0.662500X0.075000X0*%
%TD*%
%TA.AperFunction,SMDPad,CuDef*%
%ADD16RoundRect,0.075000X-0.075000X-0.662500X0.075000X-0.662500X0.075000X0.662500X-0.075000X0.662500X0*%
%TD*%
%TA.AperFunction,ComponentPad*%
%ADD17R,1.700000X1.700000*%
%TD*%
%TA.AperFunction,ComponentPad*%
%ADD18O,1.700000X1.700000*%
%TD*%
%TA.AperFunction,SMDPad,CuDef*%
%ADD19RoundRect,0.075000X0.662500X0.075000X-0.662500X0.075000X-0.662500X-0.075000X0.662500X-0.075000X0*%
%TD*%
%TA.AperFunction,SMDPad,CuDef*%
%ADD20RoundRect,0.075000X0.075000X0.662500X-0.075000X0.662500X-0.075000X-0.662500X0.075000X-0.662500X0*%
%TD*%
%TA.AperFunction,ComponentPad*%
%ADD21C,2.000000*%
%TD*%
%TA.AperFunction,Conductor*%
%ADD22C,0.200000*%
%TD*%
G04 APERTURE END LIST*
D10*
%TO.P,photoresistor,1*%
%TO.N,+3.3V*%
X157700000Y-73250000D03*
%TO.P,photoresistor,2*%
%TO.N,Net-(U2-PB0)*%
X165300000Y-73250000D03*
%TD*%
D11*
%TO.P,R6-S2,1*%
%TO.N,Net-(U2-PA1)*%
X198690000Y-102750000D03*
D12*
%TO.P,R6-S2,2*%
%TO.N,/Blink On Receive S2*%
X206310000Y-102750000D03*
%TD*%
D11*
%TO.P,R1,1*%
%TO.N,Net-(U1-PA0)*%
X125560000Y-102750000D03*
D12*
%TO.P,R1,2*%
%TO.N,/Blink On Send S1*%
X117940000Y-102750000D03*
%TD*%
D13*
%TO.P,Received bit,1,K*%
%TO.N,GND*%
X212525000Y-99250000D03*
D14*
%TO.P,Received bit,2,A*%
%TO.N,/Blink On Receive S2*%
X209985000Y-99250000D03*
%TD*%
D15*
%TO.P,STM32f103C8,1,VBAT*%
%TO.N,unconnected-(U1-VBAT-Pad1)*%
X129837500Y-101250000D03*
%TO.P,STM32f103C8,2,PC13*%
%TO.N,unconnected-(U1-PC13-Pad2)*%
X129837500Y-101750000D03*
%TO.P,STM32f103C8,3,PC14*%
%TO.N,unconnected-(U1-PC14-Pad3)*%
X129837500Y-102250000D03*
%TO.P,STM32f103C8,4,PC15*%
%TO.N,unconnected-(U1-PC15-Pad4)*%
X129837500Y-102750000D03*
%TO.P,STM32f103C8,5,PD0*%
%TO.N,unconnected-(U1-PD0-Pad5)*%
X129837500Y-103250000D03*
%TO.P,STM32f103C8,6,PD1*%
%TO.N,unconnected-(U1-PD1-Pad6)*%
X129837500Y-103750000D03*
%TO.P,STM32f103C8,7,NRST*%
%TO.N,unconnected-(U1-NRST-Pad7)*%
X129837500Y-104250000D03*
%TO.P,STM32f103C8,8,VSSA*%
%TO.N,unconnected-(U1-VSSA-Pad8)*%
X129837500Y-104750000D03*
%TO.P,STM32f103C8,9,VDDA*%
%TO.N,unconnected-(U1-VDDA-Pad9)*%
X129837500Y-105250000D03*
%TO.P,STM32f103C8,10,PA0*%
%TO.N,Net-(U1-PA0)*%
X129837500Y-105750000D03*
%TO.P,STM32f103C8,11,PA1*%
%TO.N,Net-(U1-PA1)*%
X129837500Y-106250000D03*
%TO.P,STM32f103C8,12,PA2*%
%TO.N,Net-(U1-PA2)*%
X129837500Y-106750000D03*
D16*
%TO.P,STM32f103C8,13,PA3*%
%TO.N,unconnected-(U1-PA3-Pad13)*%
X131250000Y-108162500D03*
%TO.P,STM32f103C8,14,PA4*%
%TO.N,Net-(U1-PA4)*%
X131750000Y-108162500D03*
%TO.P,STM32f103C8,15,PA5*%
%TO.N,Net-(U1-PA5)*%
X132250000Y-108162500D03*
%TO.P,STM32f103C8,16,PA6*%
%TO.N,Net-(U1-PA6)*%
X132750000Y-108162500D03*
%TO.P,STM32f103C8,17,PA7*%
%TO.N,Net-(U1-PA7)*%
X133250000Y-108162500D03*
%TO.P,STM32f103C8,18,PB0*%
%TO.N,Net-(U1-PB0)*%
X133750000Y-108162500D03*
%TO.P,STM32f103C8,19,PB1*%
%TO.N,unconnected-(U1-PB1-Pad19)*%
X134250000Y-108162500D03*
%TO.P,STM32f103C8,20,PB2*%
%TO.N,unconnected-(U1-PB2-Pad20)*%
X134750000Y-108162500D03*
%TO.P,STM32f103C8,21,PB10*%
%TO.N,unconnected-(U1-PB10-Pad21)*%
X135250000Y-108162500D03*
%TO.P,STM32f103C8,22,PB11*%
%TO.N,unconnected-(U1-PB11-Pad22)*%
X135750000Y-108162500D03*
%TO.P,STM32f103C8,23,VSS*%
%TO.N,GND*%
X136250000Y-108162500D03*
%TO.P,STM32f103C8,24,VDD*%
%TO.N,+3.3V*%
X136750000Y-108162500D03*
D15*
%TO.P,STM32f103C8,25,PB12*%
%TO.N,unconnected-(U1-PB12-Pad25)*%
X138162500Y-106750000D03*
%TO.P,STM32f103C8,26,PB13*%
%TO.N,unconnected-(U1-PB13-Pad26)*%
X138162500Y-106250000D03*
%TO.P,STM32f103C8,27,PB14*%
%TO.N,unconnected-(U1-PB14-Pad27)*%
X138162500Y-105750000D03*
%TO.P,STM32f103C8,28,PB15*%
%TO.N,unconnected-(U1-PB15-Pad28)*%
X138162500Y-105250000D03*
%TO.P,STM32f103C8,29,PA8*%
%TO.N,unconnected-(U1-PA8-Pad29)*%
X138162500Y-104750000D03*
%TO.P,STM32f103C8,30,PA9*%
%TO.N,Net-(U1-PA9)*%
X138162500Y-104250000D03*
%TO.P,STM32f103C8,31,PA10*%
%TO.N,Net-(U1-PA10)*%
X138162500Y-103750000D03*
%TO.P,STM32f103C8,32,PA11*%
%TO.N,unconnected-(U1-PA11-Pad32)*%
X138162500Y-103250000D03*
%TO.P,STM32f103C8,33,PA12*%
%TO.N,unconnected-(U1-PA12-Pad33)*%
X138162500Y-102750000D03*
%TO.P,STM32f103C8,34,PA13*%
%TO.N,Net-(J1-Pin_2)*%
X138162500Y-102250000D03*
%TO.P,STM32f103C8,35,VSS*%
%TO.N,unconnected-(U1-VSS-Pad35)*%
X138162500Y-101750000D03*
%TO.P,STM32f103C8,36,VDD*%
%TO.N,+3.3V*%
X138162500Y-101250000D03*
D16*
%TO.P,STM32f103C8,37,PA14*%
%TO.N,Net-(J1-Pin_3)*%
X136750000Y-99837500D03*
%TO.P,STM32f103C8,38,PA15*%
%TO.N,unconnected-(U1-PA15-Pad38)*%
X136250000Y-99837500D03*
%TO.P,STM32f103C8,39,PB3*%
%TO.N,unconnected-(U1-PB3-Pad39)*%
X135750000Y-99837500D03*
%TO.P,STM32f103C8,40,PB4*%
%TO.N,unconnected-(U1-PB4-Pad40)*%
X135250000Y-99837500D03*
%TO.P,STM32f103C8,41,PB5*%
%TO.N,unconnected-(U1-PB5-Pad41)*%
X134750000Y-99837500D03*
%TO.P,STM32f103C8,42,PB6*%
%TO.N,unconnected-(U1-PB6-Pad42)*%
X134250000Y-99837500D03*
%TO.P,STM32f103C8,43,PB7*%
%TO.N,unconnected-(U1-PB7-Pad43)*%
X133750000Y-99837500D03*
%TO.P,STM32f103C8,44,BOOT0*%
%TO.N,unconnected-(U1-BOOT0-Pad44)*%
X133250000Y-99837500D03*
%TO.P,STM32f103C8,45,PB8*%
%TO.N,unconnected-(U1-PB8-Pad45)*%
X132750000Y-99837500D03*
%TO.P,STM32f103C8,46,PB9*%
%TO.N,unconnected-(U1-PB9-Pad46)*%
X132250000Y-99837500D03*
%TO.P,STM32f103C8,47,VSS*%
%TO.N,GND*%
X131750000Y-99837500D03*
%TO.P,STM32f103C8,48,VDD*%
%TO.N,unconnected-(U1-VDD-Pad48)*%
X131250000Y-99837500D03*
%TD*%
D11*
%TO.P,R14,1*%
%TO.N,Net-(U1-PA4)*%
X126500000Y-111190000D03*
D12*
%TO.P,R14,2*%
%TO.N,/LSB data of S1*%
X126500000Y-118810000D03*
%TD*%
D11*
%TO.P,R4,1*%
%TO.N,Net-(U1-PA6)*%
X131000000Y-111190000D03*
D12*
%TO.P,R4,2*%
%TO.N,/Toggle on External Interrupt S1*%
X131000000Y-118810000D03*
%TD*%
D13*
%TO.P,LSB,1,K*%
%TO.N,GND*%
X197725000Y-74500000D03*
D14*
%TO.P,LSB,2,A*%
%TO.N,/LSB of data S2*%
X200265000Y-74500000D03*
%TD*%
D11*
%TO.P,R13,1*%
%TO.N,Net-(U1-PA7)*%
X133250000Y-111190000D03*
D12*
%TO.P,R13,2*%
%TO.N,/MSB data by Timer S1*%
X133250000Y-118810000D03*
%TD*%
D13*
%TO.P,Sent bit,1,K*%
%TO.N,GND*%
X109725000Y-101000000D03*
D14*
%TO.P,Sent bit,2,A*%
%TO.N,/Blink On Send S1*%
X112265000Y-101000000D03*
%TD*%
D13*
%TO.P,Received bit,1,K*%
%TO.N,GND*%
X109725000Y-109000000D03*
D14*
%TO.P,Received bit,2,A*%
%TO.N,/Blink On Receive S1*%
X112265000Y-109000000D03*
%TD*%
D13*
%TO.P,Toggle,1,K*%
%TO.N,GND*%
X115500000Y-135250000D03*
D14*
%TO.P,Toggle,2,A*%
%TO.N,/Toggle on External Interrupt S1*%
X118040000Y-135250000D03*
%TD*%
D11*
%TO.P,R7-S2,1*%
%TO.N,Net-(U2-PA5)*%
X198000000Y-96310000D03*
D12*
%TO.P,R7-S2,2*%
%TO.N,/Output Photo S2*%
X198000000Y-88690000D03*
%TD*%
D17*
%TO.P,J1,1,Pin_1*%
%TO.N,+3.3V*%
X141050000Y-94525000D03*
D18*
%TO.P,J1,2,Pin_2*%
%TO.N,Net-(J1-Pin_2)*%
X138510000Y-94525000D03*
%TO.P,J1,3,Pin_3*%
%TO.N,Net-(J1-Pin_3)*%
X135970000Y-94525000D03*
%TO.P,J1,4,Pin_4*%
%TO.N,unconnected-(J1-Pin_4-Pad4)*%
X133430000Y-94525000D03*
%TO.P,J1,5,Pin_5*%
%TO.N,GND*%
X130890000Y-94525000D03*
%TD*%
D11*
%TO.P,R2,1*%
%TO.N,Net-(U1-PA1)*%
X125560000Y-105000000D03*
D12*
%TO.P,R2,2*%
%TO.N,/Blink On Receive S1*%
X117940000Y-105000000D03*
%TD*%
D11*
%TO.P,R11-S2,1*%
%TO.N,Net-(U2-PA7)*%
X193500000Y-96310000D03*
D12*
%TO.P,R11-S2,2*%
%TO.N,/MSB data by Timer S2*%
X193500000Y-88690000D03*
%TD*%
D13*
%TO.P,Toggle,1,K*%
%TO.N,GND*%
X207725000Y-74250000D03*
D14*
%TO.P,Toggle,2,A*%
%TO.N,/Toggle on External Interrupt S2*%
X210265000Y-74250000D03*
%TD*%
D11*
%TO.P,R12-S2,1*%
%TO.N,Net-(U2-PA4)*%
X200500000Y-96310000D03*
D12*
%TO.P,R12-S2,2*%
%TO.N,/LSB of data S2*%
X200500000Y-88690000D03*
%TD*%
D11*
%TO.P,R10,1*%
%TO.N,Net-(U1-PA2)*%
X125560000Y-107250000D03*
D12*
%TO.P,R10,2*%
%TO.N,GND*%
X117940000Y-107250000D03*
%TD*%
D11*
%TO.P,R9-S3,1*%
%TO.N,GND*%
X206250000Y-100250000D03*
D12*
%TO.P,R9-S3,2*%
%TO.N,Net-(U2-PA2)*%
X198630000Y-100250000D03*
%TD*%
D11*
%TO.P,R3,1*%
%TO.N,Net-(U1-PA5)*%
X128750000Y-111190000D03*
D12*
%TO.P,R3,2*%
%TO.N,/Output Photo S1*%
X128750000Y-118810000D03*
%TD*%
D13*
%TO.P,Sent bit,1,K*%
%TO.N,GND*%
X212525000Y-107250000D03*
D14*
%TO.P,Sent bit,2,A*%
%TO.N,/Blink On Send S2*%
X209985000Y-107250000D03*
%TD*%
D13*
%TO.P,LSB,1,K*%
%TO.N,GND*%
X127225000Y-135250000D03*
D14*
%TO.P,LSB,2,A*%
%TO.N,/LSB data of S1*%
X129765000Y-135250000D03*
%TD*%
D13*
%TO.P,MSB,1,K*%
%TO.N,GND*%
X137275000Y-135250000D03*
D14*
%TO.P,MSB,2,A*%
%TO.N,/MSB data by Timer S1*%
X134735000Y-135250000D03*
%TD*%
D19*
%TO.P,STM32F103C8,1,VBAT*%
%TO.N,unconnected-(U2-VBAT-Pad1)*%
X194662500Y-107000000D03*
%TO.P,STM32F103C8,2,PC13*%
%TO.N,unconnected-(U2-PC13-Pad2)*%
X194662500Y-106500000D03*
%TO.P,STM32F103C8,3,PC14*%
%TO.N,unconnected-(U2-PC14-Pad3)*%
X194662500Y-106000000D03*
%TO.P,STM32F103C8,4,PC15*%
%TO.N,unconnected-(U2-PC15-Pad4)*%
X194662500Y-105500000D03*
%TO.P,STM32F103C8,5,PD0*%
%TO.N,unconnected-(U2-PD0-Pad5)*%
X194662500Y-105000000D03*
%TO.P,STM32F103C8,6,PD1*%
%TO.N,unconnected-(U2-PD1-Pad6)*%
X194662500Y-104500000D03*
%TO.P,STM32F103C8,7,NRST*%
%TO.N,unconnected-(U2-NRST-Pad7)*%
X194662500Y-104000000D03*
%TO.P,STM32F103C8,8,VSSA*%
%TO.N,GND*%
X194662500Y-103500000D03*
%TO.P,STM32F103C8,9,VDDA*%
%TO.N,unconnected-(U2-VDDA-Pad9)*%
X194662500Y-103000000D03*
%TO.P,STM32F103C8,10,PA0*%
%TO.N,Net-(U2-PA0)*%
X194662500Y-102500000D03*
%TO.P,STM32F103C8,11,PA1*%
%TO.N,Net-(U2-PA1)*%
X194662500Y-102000000D03*
%TO.P,STM32F103C8,12,PA2*%
%TO.N,Net-(U2-PA2)*%
X194662500Y-101500000D03*
D20*
%TO.P,STM32F103C8,13,PA3*%
%TO.N,unconnected-(U2-PA3-Pad13)*%
X193250000Y-100087500D03*
%TO.P,STM32F103C8,14,PA4*%
%TO.N,Net-(U2-PA4)*%
X192750000Y-100087500D03*
%TO.P,STM32F103C8,15,PA5*%
%TO.N,Net-(U2-PA5)*%
X192250000Y-100087500D03*
%TO.P,STM32F103C8,16,PA6*%
%TO.N,Net-(U2-PA6)*%
X191750000Y-100087500D03*
%TO.P,STM32F103C8,17,PA7*%
%TO.N,Net-(U2-PA7)*%
X191250000Y-100087500D03*
%TO.P,STM32F103C8,18,PB0*%
%TO.N,Net-(U2-PB0)*%
X190750000Y-100087500D03*
%TO.P,STM32F103C8,19,PB1*%
%TO.N,unconnected-(U2-PB1-Pad19)*%
X190250000Y-100087500D03*
%TO.P,STM32F103C8,20,PB2*%
%TO.N,unconnected-(U2-PB2-Pad20)*%
X189750000Y-100087500D03*
%TO.P,STM32F103C8,21,PB10*%
%TO.N,unconnected-(U2-PB10-Pad21)*%
X189250000Y-100087500D03*
%TO.P,STM32F103C8,22,PB11*%
%TO.N,unconnected-(U2-PB11-Pad22)*%
X188750000Y-100087500D03*
%TO.P,STM32F103C8,23,VSS*%
%TO.N,GND*%
X188250000Y-100087500D03*
%TO.P,STM32F103C8,24,VDD*%
%TO.N,+3.3V*%
X187750000Y-100087500D03*
D19*
%TO.P,STM32F103C8,25,PB12*%
%TO.N,unconnected-(U2-PB12-Pad25)*%
X186337500Y-101500000D03*
%TO.P,STM32F103C8,26,PB13*%
%TO.N,unconnected-(U2-PB13-Pad26)*%
X186337500Y-102000000D03*
%TO.P,STM32F103C8,27,PB14*%
%TO.N,unconnected-(U2-PB14-Pad27)*%
X186337500Y-102500000D03*
%TO.P,STM32F103C8,28,PB15*%
%TO.N,unconnected-(U2-PB15-Pad28)*%
X186337500Y-103000000D03*
%TO.P,STM32F103C8,29,PA8*%
%TO.N,unconnected-(U2-PA8-Pad29)*%
X186337500Y-103500000D03*
%TO.P,STM32F103C8,30,PA9*%
%TO.N,Net-(U1-PA10)*%
X186337500Y-104000000D03*
%TO.P,STM32F103C8,31,PA10*%
%TO.N,Net-(U1-PA9)*%
X186337500Y-104500000D03*
%TO.P,STM32F103C8,32,PA11*%
%TO.N,unconnected-(U2-PA11-Pad32)*%
X186337500Y-105000000D03*
%TO.P,STM32F103C8,33,PA12*%
%TO.N,unconnected-(U2-PA12-Pad33)*%
X186337500Y-105500000D03*
%TO.P,STM32F103C8,34,PA13*%
%TO.N,Net-(J2-Pin_2)*%
X186337500Y-106000000D03*
%TO.P,STM32F103C8,35,VSS*%
%TO.N,unconnected-(U2-VSS-Pad35)*%
X186337500Y-106500000D03*
%TO.P,STM32F103C8,36,VDD*%
%TO.N,+3.3V*%
X186337500Y-107000000D03*
D20*
%TO.P,STM32F103C8,37,PA14*%
%TO.N,Net-(J2-Pin_3)*%
X187750000Y-108412500D03*
%TO.P,STM32F103C8,38,PA15*%
%TO.N,unconnected-(U2-PA15-Pad38)*%
X188250000Y-108412500D03*
%TO.P,STM32F103C8,39,PB3*%
%TO.N,unconnected-(U2-PB3-Pad39)*%
X188750000Y-108412500D03*
%TO.P,STM32F103C8,40,PB4*%
%TO.N,unconnected-(U2-PB4-Pad40)*%
X189250000Y-108412500D03*
%TO.P,STM32F103C8,41,PB5*%
%TO.N,unconnected-(U2-PB5-Pad41)*%
X189750000Y-108412500D03*
%TO.P,STM32F103C8,42,PB6*%
%TO.N,unconnected-(U2-PB6-Pad42)*%
X190250000Y-108412500D03*
%TO.P,STM32F103C8,43,PB7*%
%TO.N,unconnected-(U2-PB7-Pad43)*%
X190750000Y-108412500D03*
%TO.P,STM32F103C8,44,BOOT0*%
%TO.N,unconnected-(U2-BOOT0-Pad44)*%
X191250000Y-108412500D03*
%TO.P,STM32F103C8,45,PB8*%
%TO.N,unconnected-(U2-PB8-Pad45)*%
X191750000Y-108412500D03*
%TO.P,STM32F103C8,46,PB9*%
%TO.N,unconnected-(U2-PB9-Pad46)*%
X192250000Y-108412500D03*
%TO.P,STM32F103C8,47,VSS*%
%TO.N,GND*%
X192750000Y-108412500D03*
%TO.P,STM32F103C8,48,VDD*%
%TO.N,unconnected-(U2-VDD-Pad48)*%
X193250000Y-108412500D03*
%TD*%
D11*
%TO.P,R5-S2,1*%
%TO.N,Net-(U2-PA0)*%
X198690000Y-105750000D03*
D12*
%TO.P,R5-S2,2*%
%TO.N,/Blink On Send S2*%
X206310000Y-105750000D03*
%TD*%
D11*
%TO.P,R18,1*%
%TO.N,GND*%
X135500000Y-118810000D03*
D12*
%TO.P,R18,2*%
%TO.N,Net-(U1-PB0)*%
X135500000Y-111190000D03*
%TD*%
D21*
%TO.P,Switch,1,1*%
%TO.N,Net-(U2-PA2)*%
X199750000Y-116750000D03*
X206250000Y-116750000D03*
%TO.P,Switch,2,2*%
%TO.N,+3.3V*%
X199750000Y-121250000D03*
X206250000Y-121250000D03*
%TD*%
D10*
%TO.P,photoresistor,1*%
%TO.N,+3.3V*%
X164050000Y-131500000D03*
%TO.P,photoresistor,2*%
%TO.N,Net-(U1-PB0)*%
X156450000Y-131500000D03*
%TD*%
D13*
%TO.P,Output,1,K*%
%TO.N,GND*%
X215225000Y-74250000D03*
D14*
%TO.P,Output,2,A*%
%TO.N,/Output Photo S2*%
X217765000Y-74250000D03*
%TD*%
D11*
%TO.P,R8-S2,1*%
%TO.N,Net-(U2-PA6)*%
X195750000Y-96310000D03*
D12*
%TO.P,R8-S2,2*%
%TO.N,/Toggle on External Interrupt S2*%
X195750000Y-88690000D03*
%TD*%
D17*
%TO.P,J2,1,Pin_1*%
%TO.N,+3.3V*%
X182700000Y-114225000D03*
D18*
%TO.P,J2,2,Pin_2*%
%TO.N,Net-(J2-Pin_2)*%
X185240000Y-114225000D03*
%TO.P,J2,3,Pin_3*%
%TO.N,Net-(J2-Pin_3)*%
X187780000Y-114225000D03*
%TO.P,J2,4,Pin_4*%
%TO.N,unconnected-(J2-Pin_4-Pad4)*%
X190320000Y-114225000D03*
%TO.P,J2,5,Pin_5*%
%TO.N,GND*%
X192860000Y-114225000D03*
%TD*%
D13*
%TO.P,MSB,1,K*%
%TO.N,GND*%
X190475000Y-74500000D03*
D14*
%TO.P,MSB,2,A*%
%TO.N,/MSB data by Timer S2*%
X193015000Y-74500000D03*
%TD*%
D13*
%TO.P,Output,1,K*%
%TO.N,GND*%
X108250000Y-135250000D03*
D14*
%TO.P,Output,2,A*%
%TO.N,/Output Photo S1*%
X110790000Y-135250000D03*
%TD*%
D21*
%TO.P,Switch,1,1*%
%TO.N,Net-(U1-PA2)*%
X120750000Y-95000000D03*
X114250000Y-95000000D03*
%TO.P,Switch,2,2*%
%TO.N,+3.3V*%
X120750000Y-90500000D03*
X114250000Y-90500000D03*
%TD*%
D11*
%TO.P,R17-S2,1*%
%TO.N,GND*%
X190750000Y-88690000D03*
D12*
%TO.P,R17-S2,2*%
%TO.N,Net-(U2-PB0)*%
X190750000Y-96310000D03*
%TD*%
D22*
%TO.N,GND*%
X134857000Y-137668000D02*
X124807000Y-137668000D01*
X192750000Y-108412500D02*
X192750000Y-114115000D01*
X108250000Y-135250000D02*
X108250000Y-136444000D01*
X143510000Y-117602000D02*
X153924000Y-128016000D01*
X109725000Y-101000000D02*
X109725000Y-99571000D01*
X108250000Y-136444000D02*
X109474000Y-137668000D01*
X132080000Y-101346000D02*
X131750000Y-101016000D01*
X136250000Y-107040000D02*
X132080000Y-102870000D01*
X109725000Y-109979000D02*
X110744000Y-110998000D01*
X206250000Y-100250000D02*
X207264000Y-99236000D01*
X212525000Y-107250000D02*
X215225000Y-104550000D01*
X110744000Y-110998000D02*
X114192000Y-110998000D01*
X132080000Y-102870000D02*
X132080000Y-101346000D01*
X192750000Y-107152000D02*
X192750000Y-108412500D01*
X153924000Y-135636000D02*
X155194000Y-136906000D01*
X192098000Y-106500000D02*
X192750000Y-107152000D01*
X124807000Y-137668000D02*
X112500000Y-137668000D01*
X109725000Y-109000000D02*
X109725000Y-101000000D01*
X193426000Y-103500000D02*
X192098000Y-104828000D01*
X153924000Y-128016000D02*
X153924000Y-135636000D01*
X129954000Y-98552000D02*
X130890000Y-97616000D01*
X155194000Y-136906000D02*
X164084000Y-136906000D01*
X135500000Y-118810000D02*
X136708000Y-117602000D01*
X209541000Y-96266000D02*
X212525000Y-99250000D01*
X207264000Y-99236000D02*
X207264000Y-97028000D01*
X112500000Y-137668000D02*
X113082000Y-137668000D01*
X108250000Y-110475000D02*
X108250000Y-135250000D01*
X208026000Y-96266000D02*
X209541000Y-96266000D01*
X113082000Y-137668000D02*
X115500000Y-135250000D01*
X212525000Y-99250000D02*
X215225000Y-96550000D01*
X131750000Y-101016000D02*
X131750000Y-99837500D01*
X109725000Y-109000000D02*
X108250000Y-110475000D01*
X188250000Y-100087500D02*
X188250000Y-100980000D01*
X188467000Y-118618000D02*
X192860000Y-114225000D01*
X109474000Y-137668000D02*
X112500000Y-137668000D01*
X182372000Y-118618000D02*
X188467000Y-118618000D01*
X109725000Y-109000000D02*
X109725000Y-109979000D01*
X137275000Y-135250000D02*
X134857000Y-137668000D01*
X136250000Y-108162500D02*
X136250000Y-107040000D01*
X130890000Y-94525000D02*
X130890000Y-97616000D01*
X207264000Y-97028000D02*
X208026000Y-96266000D01*
X215225000Y-96550000D02*
X215225000Y-74250000D01*
X110744000Y-98552000D02*
X129954000Y-98552000D01*
X190475000Y-88415000D02*
X190750000Y-88690000D01*
X215225000Y-104550000D02*
X215225000Y-96550000D01*
X109725000Y-99571000D02*
X110744000Y-98552000D01*
X136708000Y-117602000D02*
X143510000Y-117602000D01*
X188250000Y-91190000D02*
X190750000Y-88690000D01*
X131750000Y-98476000D02*
X131750000Y-99837500D01*
X188250000Y-100087500D02*
X188250000Y-91190000D01*
X192750000Y-114115000D02*
X192860000Y-114225000D01*
X164084000Y-136906000D02*
X182372000Y-118618000D01*
X188250000Y-100980000D02*
X192098000Y-104828000D01*
X130890000Y-97616000D02*
X131750000Y-98476000D01*
X192098000Y-104828000D02*
X192098000Y-106500000D01*
X127225000Y-135250000D02*
X124807000Y-137668000D01*
X114192000Y-110998000D02*
X117940000Y-107250000D01*
X194662500Y-103500000D02*
X193426000Y-103500000D01*
%TO.N,/Blink On Send S2*%
X206310000Y-105750000D02*
X207810000Y-107250000D01*
X207810000Y-107250000D02*
X209985000Y-107250000D01*
%TO.N,/Blink On Receive S2*%
X206310000Y-102750000D02*
X206485000Y-102750000D01*
X206485000Y-102750000D02*
X209985000Y-99250000D01*
%TO.N,/Blink On Send S1*%
X116190000Y-101000000D02*
X117940000Y-102750000D01*
X112265000Y-101000000D02*
X116190000Y-101000000D01*
%TO.N,/Blink On Receive S1*%
X116265000Y-105000000D02*
X117940000Y-105000000D01*
X112265000Y-109000000D02*
X116265000Y-105000000D01*
%TO.N,Net-(J1-Pin_2)*%
X141478000Y-98806000D02*
X141478000Y-96520000D01*
X141986000Y-93218000D02*
X139817000Y-93218000D01*
X142494000Y-95504000D02*
X142494000Y-93726000D01*
X141478000Y-96520000D02*
X142494000Y-95504000D01*
X138162500Y-102250000D02*
X139050000Y-102250000D01*
X142494000Y-93726000D02*
X141986000Y-93218000D01*
X139817000Y-93218000D02*
X138510000Y-94525000D01*
X139050000Y-102250000D02*
X139446000Y-101854000D01*
X139446000Y-101854000D02*
X139446000Y-100838000D01*
X139446000Y-100838000D02*
X141478000Y-98806000D01*
%TO.N,+3.3V*%
X186337500Y-107000000D02*
X185608000Y-107000000D01*
X141050000Y-98362500D02*
X138162500Y-101250000D01*
X187386000Y-107000000D02*
X187750000Y-106636000D01*
X187750000Y-106636000D02*
X187750000Y-100087500D01*
X185608000Y-107000000D02*
X182700000Y-109908000D01*
X184537500Y-100087500D02*
X157700000Y-73250000D01*
X164050000Y-131500000D02*
X160087500Y-131500000D01*
X136398000Y-102108000D02*
X136398000Y-101346000D01*
X136750000Y-102460000D02*
X136398000Y-102108000D01*
X136750000Y-108162500D02*
X136750000Y-102460000D01*
X136869000Y-100875000D02*
X137787500Y-100875000D01*
X160087500Y-131500000D02*
X136750000Y-108162500D01*
X186337500Y-107000000D02*
X187386000Y-107000000D01*
X182700000Y-109908000D02*
X182700000Y-114225000D01*
X141050000Y-94525000D02*
X141050000Y-98362500D01*
X114250000Y-90500000D02*
X120750000Y-90500000D01*
X136398000Y-101346000D02*
X136869000Y-100875000D01*
X137787500Y-100875000D02*
X138162500Y-101250000D01*
X187750000Y-100087500D02*
X184537500Y-100087500D01*
%TO.N,Net-(J1-Pin_3)*%
X135970000Y-94525000D02*
X136750000Y-95305000D01*
X136750000Y-95305000D02*
X136750000Y-99837500D01*
%TO.N,Net-(J2-Pin_2)*%
X185420000Y-114405000D02*
X185240000Y-114225000D01*
X179324000Y-110490000D02*
X179324000Y-116078000D01*
X184912000Y-113897000D02*
X185240000Y-114225000D01*
X180340000Y-117094000D02*
X184150000Y-117094000D01*
X181864000Y-109474000D02*
X180340000Y-109474000D01*
X180340000Y-109474000D02*
X179324000Y-110490000D01*
X184150000Y-117094000D02*
X185420000Y-115824000D01*
X185338000Y-106000000D02*
X181864000Y-109474000D01*
X185420000Y-115824000D02*
X185420000Y-114405000D01*
X186337500Y-106000000D02*
X185338000Y-106000000D01*
X179324000Y-116078000D02*
X180340000Y-117094000D01*
%TO.N,Net-(J2-Pin_3)*%
X187750000Y-114195000D02*
X187780000Y-114225000D01*
X187750000Y-108412500D02*
X187750000Y-114195000D01*
%TO.N,Net-(U1-PA0)*%
X127086000Y-105750000D02*
X126746000Y-105410000D01*
X126746000Y-103936000D02*
X125560000Y-102750000D01*
X129837500Y-105750000D02*
X127086000Y-105750000D01*
X126746000Y-105410000D02*
X126746000Y-103936000D01*
%TO.N,Net-(U1-PA1)*%
X129837500Y-106250000D02*
X126810000Y-106250000D01*
X126810000Y-106250000D02*
X125560000Y-105000000D01*
%TO.N,Net-(U1-PA5)*%
X132250000Y-109304000D02*
X131826000Y-109728000D01*
X132250000Y-108162500D02*
X132250000Y-109304000D01*
X131826000Y-109728000D02*
X130212000Y-109728000D01*
X130212000Y-109728000D02*
X128750000Y-111190000D01*
%TO.N,Net-(U1-PA6)*%
X132750000Y-108162500D02*
X132750000Y-109440000D01*
X132750000Y-109440000D02*
X131000000Y-111190000D01*
%TO.N,Net-(U2-PA0)*%
X196226000Y-102500000D02*
X198690000Y-104964000D01*
X194662500Y-102500000D02*
X196226000Y-102500000D01*
X198690000Y-104964000D02*
X198690000Y-105750000D01*
%TO.N,Net-(U2-PA1)*%
X194662500Y-102000000D02*
X196742000Y-102000000D01*
X196742000Y-102000000D02*
X197492000Y-102750000D01*
X197492000Y-102750000D02*
X198690000Y-102750000D01*
%TO.N,Net-(U2-PA5)*%
X194056000Y-98044000D02*
X194564000Y-97536000D01*
X196596000Y-97536000D02*
X197822000Y-96310000D01*
X192250000Y-100087500D02*
X192250000Y-99145686D01*
X192250000Y-99145686D02*
X193351686Y-98044000D01*
X193351686Y-98044000D02*
X194056000Y-98044000D01*
X197822000Y-96310000D02*
X198000000Y-96310000D01*
X194564000Y-97536000D02*
X196596000Y-97536000D01*
%TO.N,Net-(U2-PA6)*%
X193294000Y-97536000D02*
X193802000Y-97536000D01*
X195028000Y-96310000D02*
X195750000Y-96310000D01*
X191750000Y-100087500D02*
X191750000Y-99080000D01*
X193802000Y-97536000D02*
X195028000Y-96310000D01*
X191750000Y-99080000D02*
X193294000Y-97536000D01*
%TO.N,Net-(U2-PA7)*%
X191250000Y-100087500D02*
X191250000Y-98560000D01*
X191250000Y-98560000D02*
X193500000Y-96310000D01*
%TO.N,Net-(U2-PA4)*%
X194818000Y-98044000D02*
X198120000Y-98044000D01*
X198120000Y-98044000D02*
X199854000Y-96310000D01*
X193409372Y-98552000D02*
X194310000Y-98552000D01*
X199854000Y-96310000D02*
X200500000Y-96310000D01*
X194310000Y-98552000D02*
X194818000Y-98044000D01*
X192750000Y-99211372D02*
X193409372Y-98552000D01*
X192750000Y-100087500D02*
X192750000Y-99211372D01*
%TO.N,Net-(U1-PA7)*%
X133250000Y-108162500D02*
X133250000Y-111190000D01*
%TO.N,Net-(U1-PA4)*%
X131750000Y-109042000D02*
X131572000Y-109220000D01*
X128470000Y-109220000D02*
X126500000Y-111190000D01*
X131572000Y-109220000D02*
X128470000Y-109220000D01*
X131750000Y-108162500D02*
X131750000Y-109042000D01*
%TO.N,Net-(U2-PB0)*%
X190750000Y-100087500D02*
X190750000Y-96310000D01*
%TO.N,Net-(U1-PB0)*%
X133750000Y-109112000D02*
X135500000Y-110862000D01*
X135500000Y-110862000D02*
X135500000Y-111190000D01*
X133750000Y-108162500D02*
X133750000Y-109112000D01*
%TO.N,Net-(U2-PA2)*%
X197380000Y-101500000D02*
X198630000Y-100250000D01*
X194662500Y-101500000D02*
X197380000Y-101500000D01*
%TO.N,Net-(U1-PA2)*%
X114250000Y-95000000D02*
X120750000Y-95000000D01*
X126060000Y-106750000D02*
X125560000Y-107250000D01*
X129837500Y-106750000D02*
X126060000Y-106750000D01*
%TO.N,Net-(U1-PA9)*%
X184404000Y-103886000D02*
X139700000Y-103886000D01*
X186337500Y-104500000D02*
X185018000Y-104500000D01*
X139336000Y-104250000D02*
X138162500Y-104250000D01*
X139700000Y-103886000D02*
X139336000Y-104250000D01*
X185018000Y-104500000D02*
X184404000Y-103886000D01*
%TO.N,Net-(U1-PA10)*%
X139074000Y-103750000D02*
X139446000Y-103378000D01*
X185280000Y-104000000D02*
X186337500Y-104000000D01*
X139446000Y-103378000D02*
X184658000Y-103378000D01*
X184658000Y-103378000D02*
X185280000Y-104000000D01*
X138162500Y-103750000D02*
X139074000Y-103750000D01*
%TO.N,/LSB of data S2*%
X200500000Y-88690000D02*
X200500000Y-74735000D01*
X200500000Y-74735000D02*
X200265000Y-74500000D01*
%TO.N,/LSB data of S1*%
X126500000Y-118810000D02*
X126500000Y-119134000D01*
X126500000Y-119134000D02*
X129765000Y-122399000D01*
X129765000Y-122399000D02*
X129765000Y-135250000D01*
%TD*%
M02*
