%TF.GenerationSoftware,KiCad,Pcbnew,9.0.0*%
%TF.CreationDate,2025-07-05T08:14:35+06:00*%
%TF.ProjectId,uart,75617274-2e6b-4696-9361-645f70636258,rev?*%
%TF.SameCoordinates,Original*%
%TF.FileFunction,Soldermask,Top*%
%TF.FilePolarity,Negative*%
%FSLAX46Y46*%
G04 Gerber Fmt 4.6, Leading zero omitted, Abs format (unit mm)*
G04 Created by KiCad (PCBNEW 9.0.0) date 2025-07-05 08:14:35*
%MOMM*%
%LPD*%
G01*
G04 APERTURE LIST*
G04 Aperture macros list*
%AMRoundRect*
0 Rectangle with rounded corners*
0 $1 Rounding radius*
0 $2 $3 $4 $5 $6 $7 $8 $9 X,Y pos of 4 corners*
0 Add a 4 corners polygon primitive as box body*
4,1,4,$2,$3,$4,$5,$6,$7,$8,$9,$2,$3,0*
0 Add four circle primitives for the rounded corners*
1,1,$1+$1,$2,$3*
1,1,$1+$1,$4,$5*
1,1,$1+$1,$6,$7*
1,1,$1+$1,$8,$9*
0 Add four rect primitives between the rounded corners*
20,1,$1+$1,$2,$3,$4,$5,0*
20,1,$1+$1,$4,$5,$6,$7,0*
20,1,$1+$1,$6,$7,$8,$9,0*
20,1,$1+$1,$8,$9,$2,$3,0*%
G04 Aperture macros list end*
%ADD10C,1.600000*%
%ADD11C,1.400000*%
%ADD12O,1.400000X1.400000*%
%ADD13R,1.800000X1.800000*%
%ADD14C,1.800000*%
%ADD15RoundRect,0.075000X-0.662500X-0.075000X0.662500X-0.075000X0.662500X0.075000X-0.662500X0.075000X0*%
%ADD16RoundRect,0.075000X-0.075000X-0.662500X0.075000X-0.662500X0.075000X0.662500X-0.075000X0.662500X0*%
%ADD17R,1.700000X1.700000*%
%ADD18O,1.700000X1.700000*%
%ADD19RoundRect,0.075000X0.662500X0.075000X-0.662500X0.075000X-0.662500X-0.075000X0.662500X-0.075000X0*%
%ADD20RoundRect,0.075000X0.075000X0.662500X-0.075000X0.662500X-0.075000X-0.662500X0.075000X-0.662500X0*%
%ADD21C,2.000000*%
G04 APERTURE END LIST*
D10*
%TO.C,photoresistor*%
X157700000Y-73250000D03*
X165300000Y-73250000D03*
%TD*%
D11*
%TO.C,R6-S2*%
X198690000Y-102750000D03*
D12*
X206310000Y-102750000D03*
%TD*%
D11*
%TO.C,R1*%
X125560000Y-102750000D03*
D12*
X117940000Y-102750000D03*
%TD*%
D13*
%TO.C,Received bit*%
X212525000Y-99250000D03*
D14*
X209985000Y-99250000D03*
%TD*%
D15*
%TO.C,STM32f103C8*%
X129837500Y-101250000D03*
X129837500Y-101750000D03*
X129837500Y-102250000D03*
X129837500Y-102750000D03*
X129837500Y-103250000D03*
X129837500Y-103750000D03*
X129837500Y-104250000D03*
X129837500Y-104750000D03*
X129837500Y-105250000D03*
X129837500Y-105750000D03*
X129837500Y-106250000D03*
X129837500Y-106750000D03*
D16*
X131250000Y-108162500D03*
X131750000Y-108162500D03*
X132250000Y-108162500D03*
X132750000Y-108162500D03*
X133250000Y-108162500D03*
X133750000Y-108162500D03*
X134250000Y-108162500D03*
X134750000Y-108162500D03*
X135250000Y-108162500D03*
X135750000Y-108162500D03*
X136250000Y-108162500D03*
X136750000Y-108162500D03*
D15*
X138162500Y-106750000D03*
X138162500Y-106250000D03*
X138162500Y-105750000D03*
X138162500Y-105250000D03*
X138162500Y-104750000D03*
X138162500Y-104250000D03*
X138162500Y-103750000D03*
X138162500Y-103250000D03*
X138162500Y-102750000D03*
X138162500Y-102250000D03*
X138162500Y-101750000D03*
X138162500Y-101250000D03*
D16*
X136750000Y-99837500D03*
X136250000Y-99837500D03*
X135750000Y-99837500D03*
X135250000Y-99837500D03*
X134750000Y-99837500D03*
X134250000Y-99837500D03*
X133750000Y-99837500D03*
X133250000Y-99837500D03*
X132750000Y-99837500D03*
X132250000Y-99837500D03*
X131750000Y-99837500D03*
X131250000Y-99837500D03*
%TD*%
D11*
%TO.C,R14*%
X126500000Y-111190000D03*
D12*
X126500000Y-118810000D03*
%TD*%
D11*
%TO.C,R4*%
X131000000Y-111190000D03*
D12*
X131000000Y-118810000D03*
%TD*%
D13*
%TO.C,LSB*%
X197725000Y-74500000D03*
D14*
X200265000Y-74500000D03*
%TD*%
D11*
%TO.C,R13*%
X133250000Y-111190000D03*
D12*
X133250000Y-118810000D03*
%TD*%
D13*
%TO.C,Sent bit*%
X109725000Y-101000000D03*
D14*
X112265000Y-101000000D03*
%TD*%
D13*
%TO.C,Received bit*%
X109725000Y-109000000D03*
D14*
X112265000Y-109000000D03*
%TD*%
D13*
%TO.C,Toggle*%
X115500000Y-135250000D03*
D14*
X118040000Y-135250000D03*
%TD*%
D11*
%TO.C,R7-S2*%
X198000000Y-96310000D03*
D12*
X198000000Y-88690000D03*
%TD*%
D17*
%TO.C,J1*%
X141050000Y-94525000D03*
D18*
X138510000Y-94525000D03*
X135970000Y-94525000D03*
X133430000Y-94525000D03*
X130890000Y-94525000D03*
%TD*%
D11*
%TO.C,R2*%
X125560000Y-105000000D03*
D12*
X117940000Y-105000000D03*
%TD*%
D11*
%TO.C,R11-S2*%
X193500000Y-96310000D03*
D12*
X193500000Y-88690000D03*
%TD*%
D13*
%TO.C,Toggle*%
X207725000Y-74250000D03*
D14*
X210265000Y-74250000D03*
%TD*%
D11*
%TO.C,R12-S2*%
X200500000Y-96310000D03*
D12*
X200500000Y-88690000D03*
%TD*%
D11*
%TO.C,R10*%
X125560000Y-107250000D03*
D12*
X117940000Y-107250000D03*
%TD*%
D11*
%TO.C,R9-S3*%
X206250000Y-100250000D03*
D12*
X198630000Y-100250000D03*
%TD*%
D11*
%TO.C,R3*%
X128750000Y-111190000D03*
D12*
X128750000Y-118810000D03*
%TD*%
D13*
%TO.C,Sent bit*%
X212525000Y-107250000D03*
D14*
X209985000Y-107250000D03*
%TD*%
D13*
%TO.C,LSB*%
X127225000Y-135250000D03*
D14*
X129765000Y-135250000D03*
%TD*%
D13*
%TO.C,MSB*%
X137275000Y-135250000D03*
D14*
X134735000Y-135250000D03*
%TD*%
D19*
%TO.C,STM32F103C8*%
X194662500Y-107000000D03*
X194662500Y-106500000D03*
X194662500Y-106000000D03*
X194662500Y-105500000D03*
X194662500Y-105000000D03*
X194662500Y-104500000D03*
X194662500Y-104000000D03*
X194662500Y-103500000D03*
X194662500Y-103000000D03*
X194662500Y-102500000D03*
X194662500Y-102000000D03*
X194662500Y-101500000D03*
D20*
X193250000Y-100087500D03*
X192750000Y-100087500D03*
X192250000Y-100087500D03*
X191750000Y-100087500D03*
X191250000Y-100087500D03*
X190750000Y-100087500D03*
X190250000Y-100087500D03*
X189750000Y-100087500D03*
X189250000Y-100087500D03*
X188750000Y-100087500D03*
X188250000Y-100087500D03*
X187750000Y-100087500D03*
D19*
X186337500Y-101500000D03*
X186337500Y-102000000D03*
X186337500Y-102500000D03*
X186337500Y-103000000D03*
X186337500Y-103500000D03*
X186337500Y-104000000D03*
X186337500Y-104500000D03*
X186337500Y-105000000D03*
X186337500Y-105500000D03*
X186337500Y-106000000D03*
X186337500Y-106500000D03*
X186337500Y-107000000D03*
D20*
X187750000Y-108412500D03*
X188250000Y-108412500D03*
X188750000Y-108412500D03*
X189250000Y-108412500D03*
X189750000Y-108412500D03*
X190250000Y-108412500D03*
X190750000Y-108412500D03*
X191250000Y-108412500D03*
X191750000Y-108412500D03*
X192250000Y-108412500D03*
X192750000Y-108412500D03*
X193250000Y-108412500D03*
%TD*%
D11*
%TO.C,R5-S2*%
X198690000Y-105750000D03*
D12*
X206310000Y-105750000D03*
%TD*%
D11*
%TO.C,R18*%
X135500000Y-118810000D03*
D12*
X135500000Y-111190000D03*
%TD*%
D21*
%TO.C,Switch*%
X199750000Y-116750000D03*
X206250000Y-116750000D03*
X199750000Y-121250000D03*
X206250000Y-121250000D03*
%TD*%
D10*
%TO.C,photoresistor*%
X164050000Y-131500000D03*
X156450000Y-131500000D03*
%TD*%
D13*
%TO.C,Output*%
X215225000Y-74250000D03*
D14*
X217765000Y-74250000D03*
%TD*%
D11*
%TO.C,R8-S2*%
X195750000Y-96310000D03*
D12*
X195750000Y-88690000D03*
%TD*%
D17*
%TO.C,J2*%
X182700000Y-114225000D03*
D18*
X185240000Y-114225000D03*
X187780000Y-114225000D03*
X190320000Y-114225000D03*
X192860000Y-114225000D03*
%TD*%
D13*
%TO.C,MSB*%
X190475000Y-74500000D03*
D14*
X193015000Y-74500000D03*
%TD*%
D13*
%TO.C,Output*%
X108250000Y-135250000D03*
D14*
X110790000Y-135250000D03*
%TD*%
D21*
%TO.C,Switch*%
X120750000Y-95000000D03*
X114250000Y-95000000D03*
X120750000Y-90500000D03*
X114250000Y-90500000D03*
%TD*%
D11*
%TO.C,R17-S2*%
X190750000Y-88690000D03*
D12*
X190750000Y-96310000D03*
%TD*%
M02*
