M48
; DRILL file {KiCad 9.0.0} date 2025-07-05T08:15:28+0600
; FORMAT={-:-/ absolute / metric / decimal}
; #@! TF.CreationDate,2025-07-05T08:15:28+06:00
; #@! TF.GenerationSoftware,Kicad,Pcbnew,9.0.0
; #@! TF.FileFunction,Plated,1,2,PTH
FMAT,2
METRIC
; #@! TA.AperFunction,Plated,PTH,ComponentDrill
T1C0.700
; #@! TA.AperFunction,Plated,PTH,ComponentDrill
T2C0.800
; #@! TA.AperFunction,Plated,PTH,ComponentDrill
T3C0.900
; #@! TA.AperFunction,Plated,PTH,ComponentDrill
T4C1.000
; #@! TA.AperFunction,Plated,PTH,ComponentDrill
T5C1.100
%
G90
G05
T1
X117.94Y-102.75
X117.94Y-105.0
X117.94Y-107.25
X125.56Y-102.75
X125.56Y-105.0
X125.56Y-107.25
X126.5Y-111.19
X126.5Y-118.81
X128.75Y-111.19
X128.75Y-118.81
X131.0Y-111.19
X131.0Y-118.81
X133.25Y-111.19
X133.25Y-118.81
X135.5Y-111.19
X135.5Y-118.81
X190.75Y-88.69
X190.75Y-96.31
X193.5Y-88.69
X193.5Y-96.31
X195.75Y-88.69
X195.75Y-96.31
X198.0Y-88.69
X198.0Y-96.31
X198.63Y-100.25
X198.69Y-102.75
X198.69Y-105.75
X200.5Y-88.69
X200.5Y-96.31
X206.25Y-100.25
X206.31Y-102.75
X206.31Y-105.75
T2
X156.45Y-131.5
X157.7Y-73.25
X164.05Y-131.5
X165.3Y-73.25
T3
X108.25Y-135.25
X109.725Y-101.0
X109.725Y-109.0
X110.79Y-135.25
X112.265Y-101.0
X112.265Y-109.0
X115.5Y-135.25
X118.04Y-135.25
X127.225Y-135.25
X129.765Y-135.25
X134.735Y-135.25
X137.275Y-135.25
X190.475Y-74.5
X193.015Y-74.5
X197.725Y-74.5
X200.265Y-74.5
X207.725Y-74.25
X209.985Y-99.25
X209.985Y-107.25
X210.265Y-74.25
X212.525Y-99.25
X212.525Y-107.25
X215.225Y-74.25
X217.765Y-74.25
T4
X130.89Y-94.525
X133.43Y-94.525
X135.97Y-94.525
X138.51Y-94.525
X141.05Y-94.525
X182.7Y-114.225
X185.24Y-114.225
X187.78Y-114.225
X190.32Y-114.225
X192.86Y-114.225
T5
X114.25Y-90.5
X114.25Y-95.0
X120.75Y-90.5
X120.75Y-95.0
X199.75Y-116.75
X199.75Y-121.25
X206.25Y-116.75
X206.25Y-121.25
M30
